<svg xmlns="http://www.w3.org/2000/svg" viewBox="6.4 -1 592.96 99.58" role="img" aria-label="DIMSUM"><path fill="#FFFFFF" d="M47.4 68.6L7.4 68.6L7.4 -0.2L47.4 -0.2Q60.2 -0.2 69.5 3.8Q78.8 7.8 83.8 15.5Q88.8 23.2 88.8 34.2L88.8 34.2Q88.8 45.2 83.8 52.9Q78.8 60.6 69.5 64.6Q60.2 68.6 47.4 68.6L47.4 68.6M32.1 16.9L32.1 51.5L45.9 51.5Q50 51.5 53.2 50.3Q56.4 49.1 58.7 46.95Q61 44.8 62.2 41.85Q63.4 38.9 63.4 35.3L63.4 35.3L63.4 32.9Q63.4 29.3 62.2 26.4Q61 23.5 58.7 21.35Q56.4 19.2 53.2 18.05Q50 16.9 45.9 16.9L45.9 16.9L32.1 16.9M126.6 68.6L101.9 68.6L101.9 -0.2L126.6 -0.2L126.6 68.6M165.8 68.6L142.6 68.6L142.6 -0.2L181.4 -0.2L189.9 25Q190.7 27.1 191.5 29.85Q192.3 32.6 193.05 35.35Q193.8 38.1 194.3 40.1L194.3 40.1L195 40.1Q195.5 38.2 196.25 35.6Q197 33 197.85 30.15Q198.7 27.3 199.5 25L199.5 25L208 -0.2L245.6 -0.2L245.6 68.6L220.9 68.6L220.9 38.6Q220.9 36.1 220.95 33.1Q221 30.1 221.1 27.2Q221.2 24.3 221.2 22.2L221.2 22.2L220.4 22.2Q219.7 24.5 218.75 27.55Q217.8 30.6 216.85 33.55Q215.9 36.5 215.1 38.6L215.1 38.6L204.3 68.6L182.4 68.6L171.6 38.6Q170.5 35.4 169.45 32.25Q168.4 29.1 167.6 26.45Q166.8 23.8 166.3 22.2L166.3 22.2L165.5 22.2Q165.6 23.8 165.65 26.45Q165.7 29.1 165.75 32.25Q165.8 35.4 165.8 38.6L165.8 38.6L165.8 68.6M301 69.8L301 69.8Q292.1 69.8 284.4 68.75Q276.7 67.7 270.9 65.15Q265.1 62.6 261.8 58.05Q258.5 53.5 258.5 46.6L258.5 46.6Q258.5 46.4 258.5 46.05Q258.5 45.7 258.6 45.3L258.6 45.3L282.7 45.3Q282.6 45.7 282.6 46.05Q282.6 46.4 282.6 46.7L282.6 46.7Q282.6 49.7 284.6 51.3Q286.6 52.9 290.2 53.45Q293.8 54 298.5 54L298.5 54Q300.4 54 302.45 53.95Q304.5 53.9 306.45 53.65Q308.4 53.4 309.95 52.9Q311.5 52.4 312.45 51.55Q313.4 50.7 313.4 49.4L313.4 49.4Q313.4 47.6 311.15 46.6Q308.9 45.6 305.05 45.05Q301.2 44.5 296.45 44Q291.7 43.5 286.6 42.7Q281.5 41.9 276.75 40.45Q272 39 268.15 36.5Q264.3 34 262.05 30.1Q259.8 26.2 259.8 20.6L259.8 20.6Q259.8 14.6 262.95 10.4Q266.1 6.2 271.5 3.6Q276.9 1 283.9 -0.2Q290.9 -1.4 298.5 -1.4L298.5 -1.4Q306.3 -1.4 313.15 -0.25Q320 0.9 325.25 3.4Q330.5 5.9 333.5 9.95Q336.5 14 336.5 19.8L336.5 19.8L336.5 21L312.6 21L312.6 20.6Q312.6 18.6 311.3 17.05Q310 15.5 307.1 14.55Q304.2 13.6 299.5 13.6L299.5 13.6Q294.7 13.6 291.5 14.2Q288.3 14.8 286.75 15.85Q285.2 16.9 285.2 18.1L285.2 18.1Q285.2 19.9 287.45 20.9Q289.7 21.9 293.55 22.45Q297.4 23 302.15 23.5Q306.9 24 312 24.75Q317.1 25.5 321.85 26.85Q326.6 28.2 330.45 30.6Q334.3 33 336.55 36.7Q338.8 40.4 338.8 45.8L338.8 45.8Q338.8 54.3 333.85 59.6Q328.9 64.9 320.35 67.35Q311.8 69.8 301 69.8M393 69.8L393 69.8Q378.8 69.8 369.5 65.85Q360.2 61.9 355.6 54.25Q351 46.6 351 35.5L351 35.5L351 -0.2L375.7 -0.2L375.7 34.4Q375.7 43 380.25 47.8Q384.8 52.6 393 52.6L393 52.6Q401.3 52.6 405.85 47.8Q410.4 43 410.4 34.4L410.4 34.4L410.4 -0.2L435.1 -0.2L435.1 35.5Q435.1 46.6 430.5 54.25Q425.9 61.9 416.55 65.85Q407.2 69.8 393 69.8M474.3 68.6L451.1 68.6L451.1 -0.2L489.9 -0.2L498.4 25Q499.2 27.1 500 29.85Q500.8 32.6 501.55 35.35Q502.3 38.1 502.8 40.1L502.8 40.1L503.5 40.1Q504 38.2 504.75 35.6Q505.5 33 506.35 30.15Q507.2 27.3 508 25L508 25L516.5 -0.2L554.1 -0.2L554.1 68.6L529.4 68.6L529.4 38.6Q529.4 36.1 529.45 33.1Q529.5 30.1 529.6 27.2Q529.7 24.3 529.7 22.2L529.7 22.2L528.9 22.2Q528.2 24.5 527.25 27.55Q526.3 30.6 525.35 33.55Q524.4 36.5 523.6 38.6L523.6 38.6L512.8 68.6L490.9 68.6L480.1 38.6Q479 35.4 477.95 32.25Q476.9 29.1 476.1 26.45Q475.3 23.8 474.8 22.2L474.8 22.2L474 22.2Q474.1 23.8 474.15 26.45Q474.2 29.1 474.25 32.25Q474.3 35.4 474.3 38.6L474.3 38.6L474.3 68.6"/><path fill="#E8382B" d="M578.76 11.98L578.76 0L583.81 0L583.81 11.98L578.76 11.98M588.52 14.43L574.05 14.43L574.05 17.84L588.52 17.84L588.52 14.43M569.31 22.42L569.31 9.86L593.6 9.86L593.6 22.42L569.31 22.42M581.08 7.27L581.08 2.66L595.68 2.66L595.68 7.27L581.08 7.27M574.83 24.8L574.83 24.8L579.54 24.33Q579.82 25.49 580.02 26.83Q580.22 28.18 580.36 29.43Q580.5 30.67 580.53 31.63L580.53 31.63L575.52 32.24Q575.52 31.32 575.43 30.04Q575.35 28.76 575.19 27.38Q575.04 26 574.83 24.8M581.83 24.84L581.83 24.84L586.37 23.81Q586.88 24.91 587.41 26.17Q587.94 27.43 588.36 28.63Q588.79 29.82 588.99 30.77L588.99 30.77L584.15 32Q583.98 31.08 583.62 29.84Q583.26 28.59 582.78 27.28Q582.31 25.96 581.83 24.84M588.75 24.67L588.75 24.67L593.22 23.06Q594.04 24.16 594.9 25.47Q595.75 26.78 596.5 28.06Q597.25 29.34 597.66 30.37L597.66 30.37L592.85 32.21Q592.51 31.18 591.84 29.89Q591.18 28.59 590.36 27.21Q589.54 25.83 588.75 24.67M569.17 23.37L569.17 23.37L573.95 24.57Q573.3 26.65 572.14 28.74Q570.98 30.84 569.68 32.24L569.68 32.24L565.08 29.99Q566.27 28.9 567.38 27.07Q568.49 25.25 569.17 23.37M574.24 61.98L574.24 46.33L579.54 46.33L579.54 61.98Q579.54 63.27 579.84 63.58Q580.13 63.89 581.28 63.89L581.28 63.89Q581.56 63.89 582.1 63.89Q582.64 63.89 583.27 63.89Q583.9 63.89 584.46 63.89Q585.01 63.89 585.29 63.89L585.29 63.89Q586.09 63.89 586.5 63.42Q586.9 62.95 587.09 61.63Q587.28 60.3 587.38 57.72L587.38 57.72Q587.98 58.14 588.81 58.58Q589.65 59.01 590.56 59.35Q591.46 59.68 592.12 59.85L592.12 59.85Q591.88 63.16 591.24 65.08Q590.59 67 589.3 67.8Q588.01 68.6 585.75 68.6L585.75 68.6Q585.43 68.6 584.91 68.6Q584.39 68.6 583.76 68.6Q583.13 68.6 582.52 68.6Q581.91 68.6 581.39 68.6Q580.87 68.6 580.59 68.6L580.59 68.6Q578.11 68.6 576.72 67.99Q575.32 67.38 574.78 65.93Q574.24 64.49 574.24 61.98L574.24 61.98M567.52 48.07L567.52 48.07L572.5 49.01Q572.29 51.38 571.96 54.1Q571.63 56.82 571.21 59.4Q570.79 61.98 570.27 64.03L570.27 64.03L565.08 61.94Q565.63 60.06 566.12 57.79Q566.61 55.53 566.98 53.04Q567.34 50.54 567.52 48.07M589.2 48.77L589.2 48.77L593.94 46.81Q594.91 48.87 595.78 51.21Q596.66 53.54 597.34 55.77Q598.02 58 598.36 59.82L598.36 59.82L593.2 61.98Q592.96 60.2 592.35 57.9Q591.74 55.6 590.92 53.21Q590.1 50.82 589.2 48.77M575.18 39.84L575.18 39.84L578.64 36.36Q580.2 37.3 582.09 38.52Q583.97 39.74 585.69 41.01Q587.42 42.28 588.5 43.36L588.5 43.36L584.73 47.37Q583.79 46.29 582.16 44.95Q580.52 43.61 578.67 42.25Q576.82 40.89 575.18 39.84"/><path fill="#FFFFFF" fill-opacity="0.72" d="M9.24 97.41L7.4 97.41L11.06 88L13.31 88L16.99 97.41L15.06 97.41L14.3 95.41L9.99 95.41L9.24 97.41M11.5 91.35L10.56 93.9L13.72 93.9L12.78 91.35Q12.72 91.21 12.65 91Q12.57 90.79 12.49 90.53Q12.41 90.28 12.33 90.02Q12.24 89.76 12.17 89.55L12.17 89.55L12.11 89.55Q12.02 89.82 11.91 90.18Q11.79 90.54 11.68 90.85Q11.57 91.17 11.5 91.35L11.5 91.35M34.19 97.58L34.19 97.58Q33.41 97.58 32.7 97.41Q31.98 97.23 31.43 96.87Q30.88 96.51 30.57 95.96Q30.25 95.42 30.25 94.68L30.25 94.68Q30.25 94.6 30.26 94.52Q30.27 94.43 30.27 94.39L30.27 94.39L32.06 94.39Q32.06 94.42 32.06 94.5Q32.05 94.57 32.05 94.63L32.05 94.63Q32.05 95.08 32.31 95.4Q32.57 95.72 33.07 95.9Q33.56 96.07 34.23 96.07L34.23 96.07Q34.68 96.07 35.03 96.01Q35.38 95.96 35.64 95.85Q35.89 95.75 36.06 95.61Q36.22 95.46 36.3 95.29Q36.37 95.11 36.37 94.9L36.37 94.9Q36.37 94.5 36.13 94.24Q35.88 93.98 35.46 93.8Q35.04 93.63 34.51 93.48Q33.99 93.34 33.43 93.19Q32.87 93.04 32.35 92.82Q31.82 92.61 31.4 92.31Q30.98 92.01 30.73 91.55Q30.49 91.09 30.49 90.44L30.49 90.44Q30.49 89.78 30.77 89.29Q31.05 88.8 31.56 88.47Q32.08 88.15 32.76 87.99Q33.45 87.84 34.26 87.84L34.26 87.84Q35.01 87.84 35.68 87.99Q36.34 88.15 36.85 88.49Q37.36 88.82 37.65 89.34Q37.94 89.85 37.94 90.57L37.94 90.57L37.94 90.73L36.17 90.73L36.17 90.59Q36.17 90.2 35.93 89.92Q35.69 89.65 35.25 89.5Q34.82 89.34 34.25 89.34L34.25 89.34Q33.63 89.34 33.19 89.46Q32.75 89.58 32.52 89.8Q32.28 90.03 32.28 90.36L32.28 90.36Q32.28 90.7 32.53 90.94Q32.78 91.17 33.2 91.33Q33.61 91.5 34.14 91.64Q34.67 91.77 35.23 91.93Q35.78 92.09 36.31 92.29Q36.84 92.5 37.26 92.81Q37.68 93.12 37.92 93.57Q38.17 94.02 38.17 94.65L38.17 94.65Q38.17 95.71 37.66 96.36Q37.14 97 36.24 97.29Q35.34 97.58 34.19 97.58M54.19 97.41L52.41 97.41L52.41 88L54.19 88L54.19 97.41M69.72 97.41L67.88 97.41L71.54 88L73.79 88L77.47 97.41L75.53 97.41L74.78 95.41L70.47 95.41L69.72 97.41M71.98 91.35L71.03 93.9L74.2 93.9L73.26 91.35Q73.2 91.21 73.13 91Q73.05 90.79 72.97 90.53Q72.89 90.28 72.8 90.02Q72.72 89.76 72.65 89.55L72.65 89.55L72.58 89.55Q72.5 89.82 72.39 90.18Q72.27 90.54 72.16 90.85Q72.05 91.17 71.98 91.35L71.98 91.35M92.87 97.41L91.16 97.41L91.16 88L92.86 88L96.88 93.56Q96.95 93.64 97.04 93.78Q97.14 93.93 97.22 94.06Q97.3 94.2 97.33 94.28L97.33 94.28L97.4 94.28Q97.4 94.09 97.4 93.91Q97.4 93.74 97.4 93.56L97.4 93.56L97.4 88L99.11 88L99.11 97.41L97.43 97.41L93.39 91.81Q93.28 91.65 93.14 91.41Q93 91.17 92.94 91.07L92.94 91.07L92.87 91.07Q92.87 91.25 92.87 91.44Q92.87 91.62 92.87 91.81L92.87 91.81L92.87 97.41M132.61 97.58L132.61 97.58Q131.83 97.58 131.12 97.41Q130.4 97.23 129.85 96.87Q129.3 96.51 128.99 95.96Q128.67 95.42 128.67 94.68L128.67 94.68Q128.67 94.6 128.68 94.52Q128.69 94.43 128.69 94.39L128.69 94.39L130.48 94.39Q130.48 94.42 130.48 94.5Q130.47 94.57 130.47 94.63L130.47 94.63Q130.47 95.08 130.73 95.4Q130.99 95.72 131.49 95.9Q131.98 96.07 132.65 96.07L132.65 96.07Q133.1 96.07 133.45 96.01Q133.8 95.96 134.06 95.85Q134.31 95.75 134.48 95.61Q134.64 95.46 134.72 95.29Q134.79 95.11 134.79 94.9L134.79 94.9Q134.79 94.5 134.55 94.24Q134.3 93.98 133.88 93.8Q133.46 93.63 132.93 93.48Q132.4 93.34 131.85 93.19Q131.29 93.04 130.77 92.82Q130.24 92.61 129.82 92.31Q129.4 92.01 129.15 91.55Q128.91 91.09 128.91 90.44L128.91 90.44Q128.91 89.78 129.19 89.29Q129.47 88.8 129.98 88.47Q130.5 88.15 131.18 87.99Q131.87 87.84 132.68 87.84L132.68 87.84Q133.43 87.84 134.1 87.99Q134.76 88.15 135.27 88.49Q135.78 88.82 136.07 89.34Q136.36 89.85 136.36 90.57L136.36 90.57L136.36 90.73L134.59 90.73L134.59 90.59Q134.59 90.2 134.35 89.92Q134.11 89.65 133.67 89.5Q133.24 89.34 132.67 89.34L132.67 89.34Q132.05 89.34 131.61 89.46Q131.17 89.58 130.94 89.8Q130.7 90.03 130.7 90.36L130.7 90.36Q130.7 90.7 130.95 90.94Q131.2 91.17 131.62 91.33Q132.03 91.5 132.56 91.64Q133.09 91.77 133.65 91.93Q134.2 92.09 134.73 92.29Q135.26 92.5 135.68 92.81Q136.1 93.12 136.34 93.57Q136.59 94.02 136.59 94.65L136.59 94.65Q136.59 95.71 136.07 96.36Q135.56 97 134.66 97.29Q133.76 97.58 132.61 97.58M154.92 97.41L153.13 97.41L153.13 89.54L150.13 89.54L150.13 88L157.93 88L157.93 89.54L154.92 89.54L154.92 97.41M173.68 97.41L171.9 97.41L171.9 88L176.85 88Q177.89 88 178.58 88.36Q179.26 88.71 179.61 89.37Q179.95 90.03 179.95 90.92L179.95 90.92Q179.95 91.84 179.54 92.55Q179.13 93.25 178.33 93.61L178.33 93.61L180.28 97.41L178.33 97.41L176.6 93.91L173.68 93.91L173.68 97.41M173.68 89.52L173.68 92.42L176.71 92.42Q177.4 92.42 177.77 92.02Q178.14 91.62 178.14 90.92L178.14 90.92Q178.14 90.47 177.97 90.16Q177.81 89.85 177.49 89.69Q177.18 89.52 176.71 89.52L176.71 89.52L173.68 89.52M201.73 97.41L194.31 97.41L194.31 88L201.65 88L201.65 89.52L196.09 89.52L196.09 91.84L201.05 91.84L201.05 93.36L196.09 93.36L196.09 95.89L201.73 95.89L201.73 97.41M223.53 97.41L216.11 97.41L216.11 88L223.45 88L223.45 89.52L217.89 89.52L217.89 91.84L222.84 91.84L222.84 93.36L217.89 93.36L217.89 95.89L223.53 95.89L223.53 97.41M241.99 97.41L240.21 97.41L240.21 89.54L237.2 89.54L237.2 88L245.01 88L245.01 89.54L241.99 89.54L241.99 97.41M276.08 97.41L274.29 97.41L274.29 88L281.06 88L281.06 89.52L276.08 89.52L276.08 92.05L280.56 92.05L280.56 93.57L276.08 93.57L276.08 97.41M299.55 97.58L299.55 97.58Q298.08 97.58 297.01 97.05Q295.94 96.52 295.37 95.44Q294.8 94.35 294.8 92.71L294.8 92.71Q294.8 91.05 295.37 89.97Q295.94 88.89 297.01 88.36Q298.08 87.84 299.55 87.84L299.55 87.84Q301.03 87.84 302.09 88.36Q303.16 88.89 303.73 89.97Q304.3 91.05 304.3 92.71L304.3 92.71Q304.3 94.35 303.73 95.44Q303.16 96.52 302.09 97.05Q301.03 97.58 299.55 97.58M299.55 96.07L299.55 96.07Q300.26 96.07 300.8 95.86Q301.35 95.66 301.72 95.25Q302.09 94.85 302.28 94.25Q302.47 93.65 302.47 92.87L302.47 92.87L302.47 92.57Q302.47 91.77 302.28 91.17Q302.09 90.57 301.72 90.16Q301.35 89.76 300.8 89.55Q300.26 89.34 299.55 89.34L299.55 89.34Q298.84 89.34 298.29 89.55Q297.75 89.76 297.38 90.16Q297.01 90.57 296.83 91.17Q296.64 91.77 296.64 92.57L296.64 92.57L296.64 92.87Q296.64 93.65 296.83 94.25Q297.01 94.85 297.38 95.25Q297.75 95.66 298.29 95.86Q298.84 96.07 299.55 96.07M322.86 97.58L322.86 97.58Q321.39 97.58 320.32 97.05Q319.25 96.52 318.68 95.44Q318.11 94.35 318.11 92.71L318.11 92.71Q318.11 91.05 318.68 89.97Q319.25 88.89 320.32 88.36Q321.39 87.84 322.86 87.84L322.86 87.84Q324.34 87.84 325.4 88.36Q326.46 88.89 327.03 89.97Q327.6 91.05 327.6 92.71L327.6 92.71Q327.6 94.35 327.03 95.44Q326.46 96.52 325.4 97.05Q324.34 97.58 322.86 97.58M322.86 96.07L322.86 96.07Q323.57 96.07 324.11 95.86Q324.65 95.66 325.02 95.25Q325.39 94.85 325.59 94.25Q325.78 93.65 325.78 92.87L325.78 92.87L325.78 92.57Q325.78 91.77 325.59 91.17Q325.39 90.57 325.02 90.16Q324.65 89.76 324.11 89.55Q323.57 89.34 322.86 89.34L322.86 89.34Q322.14 89.34 321.6 89.55Q321.06 89.76 320.69 90.16Q320.32 90.57 320.13 91.17Q319.95 91.77 319.95 92.57L319.95 92.57L319.95 92.87Q319.95 93.65 320.13 94.25Q320.32 94.85 320.69 95.25Q321.06 95.66 321.6 95.86Q322.14 96.07 322.86 96.07M345.61 97.41L341.84 97.41L341.84 88L345.61 88Q347.04 88 348.05 88.51Q349.07 89.02 349.62 90.05Q350.17 91.09 350.17 92.71L350.17 92.71Q350.17 94.31 349.62 95.35Q349.07 96.4 348.05 96.9Q347.04 97.41 345.61 97.41L345.61 97.41M343.62 89.52L343.62 95.89L345.61 95.89Q346.27 95.89 346.78 95.7Q347.29 95.5 347.63 95.13Q347.97 94.75 348.15 94.18Q348.33 93.61 348.33 92.86L348.33 92.86L348.33 92.57Q348.33 91.8 348.15 91.23Q347.97 90.66 347.63 90.28Q347.29 89.91 346.78 89.72Q346.27 89.52 345.61 89.52L345.61 89.52L343.62 89.52M381.84 93.39L380.1 93.39L380.1 91.64L381.84 91.64L381.84 93.39M413.98 97.41L412.19 97.41L412.19 88L416.91 88Q417.95 88 418.63 88.37Q419.31 88.74 419.66 89.41Q420 90.09 420 91.02L420 91.02Q420 91.94 419.64 92.62Q419.29 93.31 418.58 93.69Q417.87 94.06 416.82 94.06L416.82 94.06L413.98 94.06L413.98 97.41M413.98 89.52L413.98 92.54L416.76 92.54Q417.45 92.54 417.82 92.14Q418.2 91.73 418.2 91.02L418.2 91.02Q418.2 90.54 418.04 90.21Q417.87 89.88 417.56 89.7Q417.24 89.52 416.76 89.52L416.76 89.52L413.98 89.52M434.83 97.41L432.99 97.41L436.65 88L438.9 88L442.58 97.41L440.64 97.41L439.89 95.41L435.58 95.41L434.83 97.41M437.09 91.35L436.14 93.9L439.31 93.9L438.37 91.35Q438.31 91.21 438.24 91Q438.16 90.79 438.08 90.53Q438 90.28 437.91 90.02Q437.83 89.76 437.76 89.55L437.76 89.55L437.69 89.55Q437.61 89.82 437.49 90.18Q437.38 90.54 437.27 90.85Q437.16 91.17 437.09 91.35L437.09 91.35M462.77 97.41L456.27 97.41L456.27 88L458.05 88L458.05 95.86L462.77 95.86L462.77 97.41M484.09 97.41L476.66 97.41L476.66 88L484 88L484 89.52L478.45 89.52L478.45 91.84L483.4 91.84L483.4 93.36L478.45 93.36L478.45 95.89L484.09 95.89L484.09 97.41M500.24 97.41L498.46 97.41L498.46 88L503.41 88Q504.46 88 505.14 88.36Q505.83 88.71 506.17 89.37Q506.51 90.03 506.51 90.92L506.51 90.92Q506.51 91.84 506.1 92.55Q505.69 93.25 504.89 93.61L504.89 93.61L506.84 97.41L504.89 97.41L503.17 93.91L500.24 93.91L500.24 97.41M500.24 89.52L500.24 92.42L503.28 92.42Q503.96 92.42 504.33 92.02Q504.7 91.62 504.7 90.92L504.7 90.92Q504.7 90.47 504.54 90.16Q504.37 89.85 504.06 89.69Q503.74 89.52 503.28 89.52L503.28 89.52L500.24 89.52M522.59 97.41L520.87 97.41L520.87 88L523.69 88L525.17 93.24Q525.25 93.52 525.33 93.86Q525.42 94.2 525.49 94.52Q525.57 94.83 525.61 95.07L525.61 95.07L525.72 95.07Q525.75 94.86 525.8 94.56Q525.85 94.26 525.93 93.91Q526.01 93.56 526.1 93.23L526.1 93.23L527.58 88L530.37 88L530.37 97.41L528.59 97.41L528.59 92.65Q528.59 92.02 528.6 91.39Q528.61 90.76 528.63 90.31Q528.65 89.85 528.65 89.77L528.65 89.77L528.54 89.77Q528.52 89.89 528.41 90.31Q528.3 90.72 528.17 91.2Q528.05 91.68 527.95 92.02L527.95 92.02L526.4 97.41L524.76 97.41L523.21 92.03Q523.12 91.75 523.02 91.34Q522.92 90.94 522.82 90.51Q522.71 90.09 522.63 89.77L522.63 89.77L522.52 89.77Q522.53 90.14 522.55 90.65Q522.56 91.17 522.58 91.7Q522.59 92.23 522.59 92.65L522.59 92.65L522.59 97.41M549.35 97.58L549.35 97.58Q547.88 97.58 546.81 97.05Q545.74 96.52 545.18 95.44Q544.61 94.35 544.61 92.71L544.61 92.71Q544.61 91.05 545.18 89.97Q545.74 88.89 546.81 88.36Q547.88 87.84 549.35 87.84L549.35 87.84Q550.83 87.84 551.9 88.36Q552.96 88.89 553.53 89.97Q554.1 91.05 554.1 92.71L554.1 92.71Q554.1 94.35 553.53 95.44Q552.96 96.52 551.9 97.05Q550.83 97.58 549.35 97.58M549.35 96.07L549.35 96.07Q550.07 96.07 550.61 95.86Q551.15 95.66 551.52 95.25Q551.89 94.85 552.08 94.25Q552.28 93.65 552.28 92.87L552.28 92.87L552.28 92.57Q552.28 91.77 552.08 91.17Q551.89 90.57 551.52 90.16Q551.15 89.76 550.61 89.55Q550.07 89.34 549.35 89.34L549.35 89.34Q548.64 89.34 548.1 89.55Q547.56 89.76 547.19 90.16Q546.81 90.57 546.63 91.17Q546.44 91.77 546.44 92.57L546.44 92.57L546.44 92.87Q546.44 93.65 546.63 94.25Q546.81 94.85 547.19 95.25Q547.56 95.66 548.1 95.86Q548.64 96.07 549.35 96.07"/></svg>
